<svg width="103" height="37" viewBox="0 0 103 37" fill="none" xmlns="http://www.w3.org/2000/svg">
<g clip-path="url(#clip0_33_605)">
<path d="M26.06 12.87C26.16 19.94 20.15 26.06 13.08 26.09C10.5 26.09 8.09 25.36 6.06 24.07L0 26.09L2.02 20.03C0.73 18 0 15.59 0 13.01C0.03 5.93998 6.14 -0.0700222 13.22 0.0299778C20.27 0.129978 25.97 5.82998 26.07 12.87H26.06Z" fill="#FCD400"/>
<path d="M17.73 34.71C17.73 34.06 15.47 33.53 12.69 33.53C9.90999 33.53 7.64999 34.06 7.64999 34.71V35.05C7.64999 35.7 9.90999 36.23 12.69 36.23C15.47 36.23 17.73 35.7 17.73 35.05V34.71Z" fill="#F4FAFF"/>
<path d="M35.3384 13.17V1.8073H38.026V10.8056H43.4692V13.17H35.3384ZM48.7612 13.3741C47.854 13.3741 47.0488 13.1983 46.3458 12.8468C45.654 12.4839 45.1097 11.9679 44.7128 11.2989C44.3272 10.6298 44.1345 9.83035 44.1345 8.90047C44.1345 8.00461 44.3386 7.22782 44.7468 6.5701C45.1664 5.91238 45.7164 5.40208 46.3968 5.0392C47.0885 4.67632 47.8426 4.49488 48.6591 4.49488C49.589 4.49488 50.3828 4.71601 51.0405 5.15827C51.7096 5.58919 52.2142 6.19021 52.5544 6.96133C52.8946 7.72111 53.0364 8.59996 52.9797 9.59788H46.737C46.7824 10.1876 46.9978 10.6298 47.3834 10.9247C47.7803 11.2195 48.2169 11.3669 48.6931 11.3669C49.09 11.3669 49.4302 11.3102 49.7137 11.1968C50.0086 11.0721 50.2354 10.919 50.3941 10.7376L52.4524 11.486C52.0101 12.1324 51.4544 12.6087 50.7854 12.9148C50.1277 13.221 49.4529 13.3741 48.7612 13.3741ZM46.737 8.06698H50.5813C50.5699 7.52266 50.3828 7.11442 50.0199 6.84226C49.657 6.55876 49.2261 6.41701 48.7272 6.41701C48.2395 6.41701 47.803 6.54742 47.4174 6.80824C47.0432 7.06906 46.8164 7.48864 46.737 8.06698ZM56.6777 3.3382C56.2582 3.3382 55.8953 3.19078 55.5891 2.89594C55.2943 2.58976 55.1468 2.22688 55.1468 1.8073C55.1468 1.37638 55.2943 1.0135 55.5891 0.718662C55.8953 0.423822 56.2582 0.276402 56.6777 0.276402C57.1087 0.276402 57.4715 0.423822 57.7664 0.718662C58.0612 1.0135 58.2086 1.37638 58.2086 1.8073C58.2086 2.22688 58.0612 2.58976 57.7664 2.89594C57.4715 3.19078 57.1087 3.3382 56.6777 3.3382ZM55.368 13.17V6.70618H53.769V4.73302H57.9705V13.17H55.368ZM63.455 13.3741C62.5252 13.3741 61.737 13.187 61.0906 12.8128C60.4556 12.4386 59.968 11.9169 59.6278 11.2479C59.2989 10.5675 59.1345 9.78499 59.1345 8.90047C59.1345 8.01595 59.3159 7.24483 59.6788 6.58711C60.0417 5.91805 60.5463 5.40208 61.1927 5.0392C61.8504 4.67632 62.6045 4.49488 63.455 4.49488C63.9427 4.49488 64.4246 4.56292 64.9009 4.699C65.3885 4.83508 65.8364 5.06755 66.2447 5.39641C66.6643 5.71393 67.0045 6.15052 67.2653 6.70618L65.105 7.48864C64.9689 7.12576 64.7648 6.87061 64.4926 6.72319C64.2318 6.57577 63.937 6.50206 63.6081 6.50206C63.3019 6.50206 63.0071 6.58144 62.7236 6.7402C62.4401 6.88762 62.2076 7.1371 62.0262 7.48864C61.8561 7.84018 61.771 8.31646 61.771 8.91748C61.771 9.52984 61.8618 10.0175 62.0432 10.3803C62.2246 10.7319 62.4514 10.987 62.7236 11.1458C63.0071 11.2932 63.3019 11.3669 63.6081 11.3669C63.971 11.3669 64.2772 11.2989 64.5267 11.1628C64.7761 11.0154 64.9746 10.8169 65.122 10.5675L67.2313 11.3329C66.9478 11.8432 66.5962 12.2514 66.1766 12.5576C65.7571 12.8525 65.3091 13.0623 64.8328 13.187C64.3679 13.3117 63.9086 13.3741 63.455 13.3741ZM68.414 13.17V1.8073H70.9995V5.85568C71.1923 5.53816 71.5098 5.23198 71.9521 4.93714C72.4057 4.6423 72.9557 4.49488 73.602 4.49488C74.6907 4.49488 75.4334 4.80106 75.8303 5.41342C76.2386 6.01444 76.4427 6.88762 76.4427 8.03296V13.17H73.8572V8.67934C73.8572 8.28244 73.8345 7.91956 73.7891 7.5907C73.7438 7.26184 73.6304 7.00102 73.4489 6.80824C73.2788 6.60412 72.984 6.50206 72.5644 6.50206C72.0201 6.50206 71.6232 6.70051 71.3737 7.09741C71.1242 7.48297 70.9995 8.06131 70.9995 8.83243V13.17H68.414ZM81.7033 13.17C81.0116 13.17 80.4616 13.1133 80.0533 12.9999C79.6451 12.8751 79.3503 12.6427 79.1688 12.3025C78.9987 11.9509 78.9137 11.4463 78.9137 10.7886V6.70618H77.5189V4.73302H78.9137V2.62378H81.4992V4.73302H83.3363V6.70618H81.4992V10.1082C81.4992 10.5051 81.5729 10.7659 81.7203 10.8906C81.8791 11.004 82.1683 11.0607 82.5878 11.0607H83.3363V13.17H81.7033ZM88.7779 13.3741C87.8707 13.3741 87.0655 13.1983 86.3625 12.8468C85.6707 12.4839 85.1264 11.9679 84.7295 11.2989C84.3439 10.6298 84.1512 9.83035 84.1512 8.90047C84.1512 8.00461 84.3553 7.22782 84.7635 6.5701C85.1831 5.91238 85.7331 5.40208 86.4135 5.0392C87.1052 4.67632 87.8593 4.49488 88.6758 4.49488C89.6057 4.49488 90.3995 4.71601 91.0572 5.15827C91.7263 5.58919 92.2309 6.19021 92.5711 6.96133C92.9113 7.72111 93.0531 8.59996 92.9964 9.59788H86.7537C86.799 10.1876 87.0145 10.6298 87.4001 10.9247C87.797 11.2195 88.2336 11.3669 88.7098 11.3669C89.1067 11.3669 89.4469 11.3102 89.7304 11.1968C90.0253 11.0721 90.2521 10.919 90.4108 10.7376L92.469 11.486C92.0268 12.1324 91.4711 12.6087 90.8021 12.9148C90.1443 13.221 89.4696 13.3741 88.7779 13.3741ZM86.7537 8.06698H90.5979C90.5866 7.52266 90.3995 7.11442 90.0366 6.84226C89.6737 6.55876 89.2428 6.41701 88.7439 6.41701C88.2562 6.41701 87.8196 6.54742 87.4341 6.80824C87.0599 7.06906 86.8331 7.48864 86.7537 8.06698Z" fill="#F4FAFF"/>
<path d="M39.9311 30.8741C38.6951 30.8741 37.6518 30.6246 36.8013 30.1257C35.9621 29.6154 35.3668 28.9066 35.0152 27.9994L37.4647 27.1149C37.6234 27.6592 37.9183 28.0618 38.3492 28.3226C38.7915 28.5834 39.3244 28.7138 39.9481 28.7138C40.277 28.7138 40.5945 28.6798 40.9007 28.6118C41.2069 28.5324 41.462 28.4077 41.6662 28.2376C41.8703 28.0561 41.9723 27.818 41.9723 27.5231C41.9723 27.1262 41.7796 26.8201 41.394 26.6046C41.0084 26.3778 40.5095 26.2077 39.8971 26.0943L38.5193 25.8221C37.9069 25.6974 37.3343 25.5103 36.8013 25.2608C36.2797 25 35.8601 24.6598 35.5426 24.2402C35.225 23.8093 35.0663 23.2706 35.0663 22.6243C35.0663 22.0119 35.208 21.4846 35.4915 21.0423C35.775 20.6001 36.1492 20.2372 36.6142 19.9537C37.0905 19.6702 37.6121 19.4604 38.1791 19.3243C38.7461 19.1769 39.3131 19.1032 39.8801 19.1032C40.4925 19.1032 41.0821 19.1882 41.6491 19.3583C42.2275 19.5284 42.7435 19.7949 43.1971 20.1578C43.6507 20.5093 43.9965 20.98 44.2347 21.5696L41.8022 22.4542C41.6548 22.0686 41.3883 21.7738 41.0028 21.5696C40.6285 21.3655 40.1749 21.2635 39.642 21.2635C39.1203 21.2635 38.6837 21.3598 38.3322 21.5526C37.992 21.7341 37.8219 22.0006 37.8219 22.3521C37.8219 22.6356 37.941 22.8794 38.1791 23.0835C38.4172 23.2876 38.7291 23.4294 39.1147 23.5088L40.6456 23.815C41.1105 23.9057 41.5811 24.0247 42.0574 24.1722C42.5337 24.3082 42.9703 24.4954 43.3672 24.7335C43.7754 24.9603 44.1043 25.2665 44.3537 25.652C44.6032 26.0376 44.728 26.5252 44.728 27.1149C44.728 27.7159 44.5862 28.2546 44.3027 28.7308C44.0305 29.1958 43.662 29.587 43.1971 29.9045C42.7435 30.2221 42.2332 30.4659 41.6662 30.636C41.0992 30.7947 40.5208 30.8741 39.9311 30.8741ZM45.9721 33.4086V22.233H48.2174L48.5576 23.3897C48.8298 22.9248 49.2096 22.5789 49.6973 22.3521C50.1962 22.114 50.6725 21.9949 51.1261 21.9949C51.8519 21.9949 52.4926 22.1763 53.0482 22.5392C53.6152 22.9021 54.0575 23.4181 54.375 24.0871C54.6925 24.7448 54.8513 25.533 54.8513 26.4515C54.8513 27.37 54.6925 28.1638 54.375 28.8329C54.0575 29.4906 53.6152 29.9953 53.0482 30.3468C52.4926 30.6983 51.8519 30.8741 51.1261 30.8741C50.6725 30.8741 50.1962 30.755 49.6973 30.5169C49.2096 30.2788 48.8298 29.9272 48.5576 29.4623V33.4086H45.9721ZM50.3096 28.8669C50.8086 28.8669 51.2395 28.6628 51.6024 28.2546C51.9766 27.8463 52.1637 27.2453 52.1637 26.4515C52.1637 25.6804 51.9766 25.0794 51.6024 24.6484C51.2395 24.2175 50.8086 24.0021 50.3096 24.0021C49.7993 24.0021 49.3571 24.1835 48.9828 24.5464C48.62 24.9093 48.4385 25.5273 48.4385 26.4005C48.4385 27.2623 48.62 27.8917 48.9828 28.2886C49.3571 28.6741 49.7993 28.8669 50.3096 28.8669ZM56.105 30.67V22.233H58.1462L58.6055 23.7809C58.8663 23.1005 59.2235 22.6243 59.6771 22.3521C60.1307 22.0799 60.6807 21.9609 61.3271 21.9949V24.5804C61.191 24.5577 61.0719 24.5464 60.9699 24.5464C60.8678 24.535 60.7544 24.5294 60.6297 24.5294C60.006 24.5294 59.524 24.6768 59.1838 24.9716C58.8549 25.2665 58.6905 25.7484 58.6905 26.4175V30.67H56.105ZM64.6844 30.8741C64.1514 30.8741 63.6638 30.772 63.2215 30.5679C62.7793 30.3638 62.4277 30.0803 62.1669 29.7174C61.9061 29.3432 61.7757 28.9009 61.7757 28.3906C61.7757 27.6989 62.0138 27.1489 62.4901 26.7407C62.9777 26.3324 63.6411 26.0263 64.4803 25.8221C65.3194 25.618 66.2833 25.4763 67.372 25.3969C67.372 24.7959 67.2756 24.3706 67.0828 24.1211C66.89 23.8717 66.5158 23.7469 65.9602 23.7469C65.6086 23.7469 65.2968 23.832 65.0246 24.0021C64.7638 24.1608 64.588 24.4103 64.4973 24.7505L62.32 23.968C62.6035 23.401 63.0741 22.9304 63.7318 22.5562C64.4009 22.182 65.2174 21.9949 66.1813 21.9949C67.3833 21.9949 68.3075 22.2614 68.9539 22.7944C69.6003 23.3273 69.9235 24.2345 69.9235 25.516V27.37C69.9235 27.7329 69.9348 28.1242 69.9575 28.5437C69.9802 28.9633 70.0142 29.3602 70.0596 29.7344C70.1049 30.1087 70.156 30.4205 70.2127 30.67H67.8142L67.5081 29.6494C67.1905 30.0916 66.788 30.4092 66.3004 30.6019C65.8241 30.7834 65.2854 30.8741 64.6844 30.8741ZM65.637 29.1051C66.1473 29.1051 66.5725 28.969 66.9127 28.6968C67.2529 28.4247 67.423 27.903 67.423 27.1319V26.9278C66.5272 27.0072 65.8071 27.1319 65.2627 27.302C64.7184 27.4608 64.4463 27.7613 64.4463 28.2035C64.4463 28.4757 64.5597 28.6968 64.7865 28.8669C65.0133 29.0257 65.2968 29.1051 65.637 29.1051ZM75.4983 30.8741C74.5684 30.8741 73.7802 30.687 73.1339 30.3128C72.4988 29.9386 72.0112 29.4169 71.671 28.7479C71.3421 28.0675 71.1777 27.285 71.1777 26.4005C71.1777 25.516 71.3592 24.7448 71.722 24.0871C72.0849 23.4181 72.5895 22.9021 73.2359 22.5392C73.8936 22.1763 74.6478 21.9949 75.4983 21.9949C75.9859 21.9949 76.4678 22.0629 76.9441 22.199C77.4317 22.3351 77.8797 22.5676 78.2879 22.8964C78.7075 23.2139 79.0477 23.6505 79.3085 24.2062L77.1482 24.9886C77.0121 24.6258 76.808 24.3706 76.5359 24.2232C76.275 24.0758 75.9802 24.0021 75.6513 24.0021C75.3452 24.0021 75.0503 24.0814 74.7668 24.2402C74.4833 24.3876 74.2509 24.6371 74.0694 24.9886C73.8993 25.3402 73.8143 25.8165 73.8143 26.4175C73.8143 27.0298 73.905 27.5175 74.0864 27.8803C74.2679 28.2319 74.4947 28.487 74.7668 28.6458C75.0503 28.7932 75.3452 28.8669 75.6513 28.8669C76.0142 28.8669 76.3204 28.7989 76.5699 28.6628C76.8194 28.5154 77.0178 28.3169 77.1652 28.0675L79.2745 28.8329C78.991 29.3432 78.6394 29.7514 78.2199 30.0576C77.8003 30.3525 77.3523 30.5623 76.8761 30.687C76.4111 30.8117 75.9519 30.8741 75.4983 30.8741ZM80.4572 30.67V19.3073H83.0427V23.3557C83.2355 23.0382 83.553 22.732 83.9953 22.4371C84.4489 22.1423 84.9989 21.9949 85.6452 21.9949C86.7339 21.9949 87.4767 22.3011 87.8736 22.9134C88.2818 23.5144 88.4859 24.3876 88.4859 25.533V30.67H85.9004V26.1793C85.9004 25.7824 85.8777 25.4196 85.8324 25.0907C85.787 24.7618 85.6736 24.501 85.4922 24.3082C85.3221 24.1041 85.0272 24.0021 84.6076 24.0021C84.0633 24.0021 83.6664 24.2005 83.4169 24.5974C83.1675 24.983 83.0427 25.5613 83.0427 26.3324V30.67H80.4572ZM94.243 30.8741C93.3358 30.8741 92.5307 30.6983 91.8276 30.3468C91.1358 29.9839 90.5915 29.4679 90.1946 28.7989C89.8091 28.1298 89.6163 27.3304 89.6163 26.4005C89.6163 25.5046 89.8204 24.7278 90.2286 24.0701C90.6482 23.4124 91.1982 22.9021 91.8786 22.5392C92.5704 22.1763 93.3245 21.9949 94.1409 21.9949C95.0708 21.9949 95.8646 22.216 96.5223 22.6583C97.1914 23.0892 97.696 23.6902 98.0362 24.4613C98.3764 25.2211 98.5182 26.1 98.4615 27.0979H92.2188C92.2642 27.6876 92.4796 28.1298 92.8652 28.4247C93.2621 28.7195 93.6987 28.8669 94.175 28.8669C94.5719 28.8669 94.9121 28.8102 95.1956 28.6968C95.4904 28.5721 95.7172 28.419 95.876 28.2376L97.9342 28.986C97.4919 29.6324 96.9363 30.1087 96.2672 30.4148C95.6095 30.721 94.9347 30.8741 94.243 30.8741ZM92.2188 25.567H96.0631C96.0517 25.0227 95.8646 24.6144 95.5017 24.3423C95.1389 24.0588 94.7079 23.917 94.209 23.917C93.7214 23.917 93.2848 24.0474 92.8992 24.3082C92.525 24.5691 92.2982 24.9886 92.2188 25.567Z" fill="#F4FAFF"/>
</g>
<defs>
<clipPath id="clip0_33_605">
<rect width="102.86" height="36.23" fill="white"/>
</clipPath>
</defs>
</svg>
